<?xml version="1.0" encoding="utf-8"?>
<!-- Generator: Adobe Illustrator 26.0.3, SVG Export Plug-In . SVG Version: 6.00 Build 0)  -->
<svg version="1.1" id="Layer_1" xmlns="http://www.w3.org/2000/svg" xmlns:xlink="http://www.w3.org/1999/xlink" x="0px" y="0px"
	 viewBox="0 0 500 500" style="enable-background:new 0 0 500 500;" xml:space="preserve">
<style type="text/css">
	.st0{display:none;}
	.st1{display:inline;fill:#263238;}
	.st2{fill:#455A64;}
	.st3{fill:#E0E0E0;}
	.st4{fill:#EBEBEB;}
	.st5{fill:#FAFAFA;}
	.st6{fill:#263238;}
	.st7{fill:#D46845;}
	.st8{opacity:0.3;}
</style>
<g id="freepik--Floor--inject-38" class="st0">
	<path class="st1" d="M454.63,448.79c0,0.14-94.94,0.26-212,0.26s-212-0.12-212-0.26s94.92-0.26,212.05-0.26
		S454.63,448.65,454.63,448.79z"/>
</g>
<g id="freepik--Checklist--inject-38">
	<rect x="84.68" y="38.01" class="st2" width="336.09" height="460.52"/>
	<polygon class="st3" points="407.47,471.15 345.23,471.15 112.67,471.15 112.67,56.62 407.47,56.62 407.47,419.58 	"/>
	<polygon class="st4" points="402.81,463.46 341.13,463.46 110.66,463.46 110.66,51.15 402.81,51.15 402.81,412.17 	"/>
	<polygon class="st5" points="371.42,431.37 337.78,458.77 105.21,458.77 105.21,52.19 400.01,52.19 400.01,408.19 	"/>
	<path class="st6" d="M371.42,431.33c0,0,0.6-0.51,1.8-1.5l5.39-4.41l21.33-17.36v0.08c0-58.48-0.11-188.48-0.21-356l0.32,0.33
		H107.82h-2.56l0.36-0.36c0,152.86,0,293.87-0.08,406.58l-0.28-0.29l232.56,0.17h-0.08l25.28-20.5l6.33-5.11
		c1.39-1.14,2.12-1.69,2.12-1.69l-2.08,1.73l-6.33,5.25l-25.19,20.59l0,0l0,0l-232.64,0.19h-0.29v-0.29
		c0-112.71,0-253.72-0.07-406.58v-0.36h2.92h292.24h0.33v0.32c-0.1,167.58-0.18,297.52-0.21,356l0,0l0,0l-21.41,17.28l-5.42,4.53
		L371.42,431.33z"/>
	<path class="st7" d="M212.84,23.78h80.59c10.83,0,19.61,8.78,19.61,19.61v21.74l0,0H192.39l0,0V44.22
		C192.39,32.93,201.55,23.78,212.84,23.78z"/>
	<polygon class="st7" points="221.95,23.78 217.54,1.47 287.01,1.47 283.15,23.78 	"/>
	<path class="st7" d="M185.71,166.63h-49.66v-49.67h49.66V166.63z M137.44,165.25h46.88v-46.9h-46.88V165.25z"/>
	<path class="st6" d="M361.22,128.97c0,0.19-34.58,0.36-77.21,0.36s-77.22-0.17-77.22-0.36s34.56-0.36,77.22-0.36
		S361.22,128.76,361.22,128.97z"/>
	<path class="st6" d="M361.22,139.28c0,0.21-34.58,0.36-77.21,0.36s-77.22-0.15-77.22-0.36s34.56-0.36,77.22-0.36
		S361.22,139.08,361.22,139.28z"/>
	<path class="st6" d="M361.22,149.6c0,0.19-34.58,0.36-77.21,0.36s-77.22-0.17-77.22-0.36s34.56-0.36,77.22-0.36
		S361.22,149.41,361.22,149.6z"/>
	<path class="st6" d="M361.22,159.93c0,0.19-34.58,0.36-77.21,0.36s-77.22-0.17-77.22-0.36c0-0.19,34.56-0.36,77.22-0.36
		S361.22,159.7,361.22,159.93z"/>
	<path class="st7" d="M185.71,243.17h-49.66v-49.67h49.66V243.17z M137.44,241.79h46.88v-46.9h-46.88V241.79z"/>
	<polygon class="st7" points="145.92,219.37 152.51,212.28 163.5,221.07 188.66,196.65 194.69,203.76 163.02,235 	"/>
	<path class="st6" d="M361.22,205.51c0,0.19-34.58,0.36-77.21,0.36s-77.22-0.17-77.22-0.36c0-0.19,34.56-0.36,77.22-0.36
		S361.22,205.31,361.22,205.51z"/>
	<path class="st6" d="M361.22,215.83c0,0.19-34.58,0.36-77.21,0.36s-77.22-0.17-77.22-0.36s34.56-0.36,77.22-0.36
		S361.22,215.62,361.22,215.83z"/>
	<path class="st6" d="M361.22,226.14c0,0.21-34.58,0.36-77.21,0.36s-77.22-0.15-77.22-0.36s34.56-0.36,77.22-0.36
		S361.22,225.95,361.22,226.14z"/>
	<path class="st6" d="M361.22,236.47c0,0.19-34.58,0.36-77.21,0.36s-77.22-0.17-77.22-0.36c0-0.19,34.56-0.36,77.22-0.36
		S361.22,236.27,361.22,236.47z"/>
	<path class="st7" d="M185.71,317.25h-49.66v-49.67h49.66V317.25z M137.44,315.86h46.88v-46.9h-46.88V315.86z"/>
	<polygon class="st7" points="145.92,293.44 152.51,286.36 163.5,295.14 188.66,270.73 194.69,277.84 163.02,309.07 	"/>
	<path class="st6" d="M361.22,279.58c0,0.19-34.58,0.36-77.21,0.36s-77.22-0.17-77.22-0.36s34.56-0.36,77.22-0.36
		S361.22,279.37,361.22,279.58z"/>
	<path class="st6" d="M361.22,289.89c0,0.21-34.58,0.36-77.21,0.36s-77.22-0.15-77.22-0.36s34.56-0.36,77.22-0.36
		S361.22,289.7,361.22,289.89z"/>
	<path class="st6" d="M361.22,300.22c0,0.21-34.58,0.36-77.21,0.36s-77.22-0.15-77.22-0.36s34.56-0.36,77.22-0.36
		S361.22,300.02,361.22,300.22z"/>
	<path class="st6" d="M361.22,310.54c0,0.19-34.58,0.36-77.21,0.36s-77.22-0.17-77.22-0.36c0-0.19,34.56-0.36,77.22-0.36
		S361.22,310.35,361.22,310.54z"/>
	<path class="st7" d="M185.71,388.77h-49.66V339.1h49.66V388.77z M137.44,387.39h46.88v-46.9h-46.88V387.39z"/>
	<polygon class="st7" points="145.92,364.96 152.51,357.88 163.5,366.67 188.66,342.25 194.69,349.35 163.02,380.58 	"/>
	<path class="st6" d="M361.22,351.09c0,0.21-34.58,0.36-77.21,0.36s-77.22-0.15-77.22-0.36s34.56-0.36,77.22-0.36
		S361.22,350.95,361.22,351.09z"/>
	<path class="st6" d="M361.22,361.42c0,0.19-34.58,0.36-77.21,0.36s-77.22-0.17-77.22-0.36s34.56-0.36,77.22-0.36
		S361.22,361.22,361.22,361.42z"/>
	<path class="st6" d="M361.22,371.74c0,0.19-34.58,0.36-77.21,0.36s-77.22-0.17-77.22-0.36c0-0.19,34.56-0.36,77.22-0.36
		S361.22,371.53,361.22,371.74z"/>
	<path class="st6" d="M361.22,382.05c0,0.21-34.58,0.36-77.21,0.36s-77.22-0.15-77.22-0.36s34.56-0.36,77.22-0.36
		S361.22,381.86,361.22,382.05z"/>
	<polygon class="st3" points="347.02,391.46 314.7,458.4 337.78,458.4 	"/>
	<polygon class="st5" points="337.78,458.77 347.02,391.84 400.01,408.19 	"/>
	<path class="st6" d="M337.78,458.77l17.82-14.68l44.2-36.18l0.12,0.61l-20.47-6.29l-32.47-10.08l0.43-0.28
		c-2.77,19.4-5.14,36.1-6.82,47.94c-1.68,11.52-2.54,17.46-2.77,18.96c-0.01-0.1-0.01-0.2,0-0.3l0.12-0.91
		c0.11-0.87,0.26-2.09,0.47-3.64c0.43-3.26,1.04-7.93,1.82-13.86c1.61-11.93,3.85-28.72,6.47-48.33v-0.39l0.37,0.11l32.55,10.03
		l20.46,6.32l0.64,0.19l-0.51,0.42c-17.89,14.43-33.54,27.04-44.74,36.03l-13.07,10.49l-3.49,2.77l-0.89,0.71L337.78,458.77z"/>
	<g class="st8">
		<polyline points="282.2,1.47 278.38,23.78 283.15,23.78 287.01,1.47 280.93,1.47 		"/>
	</g>
</g>
</svg>
